<svg width="23" height="23" viewBox="0 0 23 23" fill="none" xmlns="http://www.w3.org/2000/svg">
<mask id="mask0_1_1384" style="mask-type:alpha" maskUnits="userSpaceOnUse" x="0" y="0" width="23" height="23">
<rect x="0.5" y="0.5" width="22" height="22" fill="#D9D9D9"/>
</mask>
<g mask="url(#mask0_1_1384)">
<path d="M7.25171 19.5207V16.4991C5.73921 16.3263 4.48261 15.6776 3.48191 14.553C2.48122 13.4283 1.98087 12.105 1.98087 10.5832H3.35587C3.35587 11.8512 3.80275 12.9321 4.6965 13.8259C5.59025 14.7196 6.67115 15.1665 7.93921 15.1665C8.03714 15.1665 8.13507 15.1651 8.233 15.1621C8.33093 15.1592 8.42687 15.1472 8.52083 15.1259C8.67239 15.3493 8.83487 15.5608 9.00827 15.7605C9.18167 15.9603 9.36294 16.1484 9.55208 16.3247C9.3993 16.3646 9.24889 16.3974 9.10085 16.4233C8.95266 16.4492 8.79453 16.4745 8.62648 16.4991V19.5207H7.25171ZM7.42794 12.8024C6.912 12.6802 6.48629 12.4186 6.15079 12.0178C5.81529 11.6167 5.64754 11.1385 5.64754 10.5832V5.08317C5.64754 4.44273 5.86937 3.90067 6.31304 3.457C6.75655 3.01334 7.29861 2.7915 7.93921 2.7915C8.57965 2.7915 9.12171 3.01334 9.56537 3.457C10.0089 3.90067 10.2306 4.44273 10.2306 5.08317V8.57361H7.09289V10.5832C7.09289 10.9718 7.12085 11.3511 7.17677 11.721C7.23253 12.0909 7.31626 12.4513 7.42794 12.8024ZM15.0608 12.8748C14.4203 12.8748 13.8783 12.653 13.4346 12.2093C12.9911 11.7657 12.7694 11.2236 12.7694 10.5832V5.08317C12.7694 4.44273 12.9911 3.90067 13.4346 3.457C13.8783 3.01334 14.4203 2.7915 15.0608 2.7915C15.7014 2.7915 16.2434 3.01334 16.687 3.457C17.1306 3.90067 17.3525 4.44273 17.3525 5.08317V10.5832C17.3525 11.2236 17.1306 11.7657 16.687 12.2093C16.2434 12.653 15.7014 12.8748 15.0608 12.8748ZM14.3735 19.5207V16.4991C12.861 16.3263 11.6044 15.6776 10.6037 14.553C9.60303 13.4283 9.10269 12.105 9.10269 10.5832H10.4775C10.4775 11.8512 10.9243 12.9321 11.8181 13.8259C12.7118 14.7196 13.7927 15.1665 15.0608 15.1665C16.3288 15.1665 17.4097 14.7196 18.3035 13.8259C19.1972 12.9321 19.6441 11.8512 19.6441 10.5832H21.0191C21.0191 12.105 20.5188 13.4283 19.5181 14.553C18.5174 15.6776 17.2608 16.3263 15.7483 16.4991V19.5207H14.3735ZM15.0608 11.4998C15.3205 11.4998 15.5382 11.412 15.7139 11.2363C15.8896 11.0606 15.9775 10.8429 15.9775 10.5832V5.08317C15.9775 4.82345 15.8896 4.60574 15.7139 4.43005C15.5382 4.25435 15.3205 4.1665 15.0608 4.1665C14.8011 4.1665 14.5834 4.25435 14.4077 4.43005C14.232 4.60574 14.1441 4.82345 14.1441 5.08317V10.5832C14.1441 10.8429 14.232 11.0606 14.4077 11.2363C14.5834 11.412 14.8011 11.4998 15.0608 11.4998Z" fill="white"/>
</g>
</svg>
