<svg width="40" height="40" viewBox="0 0 40 40" fill="none" xmlns="http://www.w3.org/2000/svg">
<rect width="40" height="40" rx="8.88889" fill="#FBACBD"/>
<path d="M19.9996 10.9001C18.8046 10.9001 17.6213 11.1355 16.5172 11.5928C15.4131 12.0501 14.41 12.7204 13.5649 13.5654C12.7199 14.4104 12.0496 15.4136 11.5923 16.5177C11.135 17.6217 10.8996 18.8051 10.8996 20.0001C10.8996 21.1951 11.135 22.3785 11.5923 23.4825C12.0496 24.5866 12.7199 25.5898 13.5649 26.4348C14.41 27.2798 15.4131 27.9501 16.5172 28.4074C17.6213 28.8647 18.8046 29.1001 19.9996 29.1001C22.4131 29.1001 24.7277 28.1414 26.4343 26.4348C28.1409 24.7282 29.0996 22.4136 29.0996 20.0001C29.0996 17.5866 28.1409 15.272 26.4343 13.5654C24.7277 11.8588 22.4131 10.9001 19.9996 10.9001ZM9.59961 20.0001C9.59961 17.2418 10.6953 14.5966 12.6457 12.6462C14.5961 10.6958 17.2414 9.6001 19.9996 9.6001C22.7579 9.6001 25.4031 10.6958 27.3535 12.6462C29.3039 14.5966 30.3996 17.2418 30.3996 20.0001C30.3996 22.7583 29.3039 25.4036 27.3535 27.354C25.4031 29.3044 22.7579 30.4001 19.9996 30.4001C17.2414 30.4001 14.5961 29.3044 12.6457 27.354C10.6953 25.4036 9.59961 22.7583 9.59961 20.0001ZM16.0996 17.4001C16.0996 17.0553 16.2366 16.7247 16.4804 16.4809C16.7242 16.2371 17.0548 16.1001 17.3996 16.1001L22.5996 16.1001C22.9444 16.1001 23.2751 16.2371 23.5188 16.4809C23.7626 16.7247 23.8996 17.0553 23.8996 17.4001L23.8996 22.6001C23.8996 22.9449 23.7626 23.2755 23.5188 23.5193C23.275 23.7631 22.9444 23.9001 22.5996 23.9001L17.3996 23.9001C17.0548 23.9001 16.7242 23.7631 16.4804 23.5193C16.2366 23.2755 16.0996 22.9449 16.0996 22.6001L16.0996 17.4001Z" fill="white"/>
</svg>
