<svg width="134" height="133" viewBox="0 0 134 133" fill="none" xmlns="http://www.w3.org/2000/svg">
<g filter="url(#filter0_d_1_1354)">
<rect x="41" y="12" width="52" height="52" rx="8.66667" fill="#2A52C6" shape-rendering="crispEdges"/>
<path d="M68.7028 26.2959H65.298C63.5491 26.2979 61.8723 26.9935 60.6356 28.2302C59.3989 29.4669 58.7033 31.1437 58.7013 32.8926V43.1069C58.7033 44.8559 59.3989 46.5326 60.6356 47.7693C61.8723 49.006 63.5491 49.7017 65.298 49.7036H68.7028C70.4517 49.7017 72.1285 49.006 73.3652 47.7693C74.6019 46.5326 75.2975 44.8559 75.2995 43.1069V32.8926C75.2975 31.1437 74.6019 29.4669 73.3652 28.2302C72.1285 26.9935 70.4517 26.2979 68.7028 26.2959ZM74.0227 43.1069C74.021 44.5173 73.46 45.8695 72.4627 46.8668C71.4654 47.8641 70.1132 48.4252 68.7028 48.4268H65.298C63.8876 48.4252 62.5354 47.8641 61.5381 46.8668C60.5408 45.8695 59.9798 44.5173 59.9781 43.1069V32.8926C59.9798 31.4822 60.5408 30.13 61.5381 29.1327C62.5354 28.1354 63.8876 27.5744 65.298 27.5727H68.7028C70.1132 27.5744 71.4654 28.1354 72.4627 29.1327C73.46 30.13 74.021 31.4822 74.0227 32.8926V43.1069ZM67.6388 32.732V43.2654L69.1028 41.8025C69.2239 41.6897 69.3839 41.6283 69.5493 41.6312C69.7147 41.6341 69.8725 41.7011 69.9895 41.8181C70.1064 41.9351 70.1734 42.0929 70.1763 42.2583C70.1793 42.4236 70.1179 42.5837 70.0051 42.7047L67.4515 45.2583C67.3318 45.3778 67.1696 45.445 67.0004 45.445C66.8312 45.445 66.669 45.3778 66.5493 45.2583L63.9957 42.7047C63.8829 42.5837 63.8215 42.4236 63.8245 42.2583C63.8274 42.0929 63.8944 41.9351 64.0113 41.8181C64.1283 41.7011 64.2861 41.6341 64.4515 41.6312C64.6169 41.6283 64.7769 41.6897 64.898 41.8025L66.362 43.2676V32.7341L64.898 34.1949C64.7769 34.3077 64.6169 34.3691 64.4515 34.3662C64.2861 34.3633 64.1283 34.2963 64.0113 34.1793C63.8944 34.0623 63.8274 33.9045 63.8245 33.7392C63.8215 33.5738 63.8829 33.4137 63.9957 33.2927L66.5493 30.7391C66.669 30.6196 66.8312 30.5524 67.0004 30.5524C67.1696 30.5524 67.3318 30.6196 67.4515 30.7391L70.0051 33.2927C70.0678 33.3511 70.1181 33.4216 70.153 33.4999C70.1879 33.5782 70.2067 33.6628 70.2082 33.7485C70.2097 33.8342 70.1939 33.9193 70.1618 33.9988C70.1297 34.0783 70.0819 34.1505 70.0213 34.2112C69.9607 34.2718 69.8885 34.3196 69.809 34.3517C69.7295 34.3838 69.6444 34.3995 69.5586 34.398C69.4729 34.3965 69.3884 34.3778 69.3101 34.3429C69.2318 34.308 69.1613 34.2577 69.1028 34.1949L67.6388 32.732Z" fill="white"/>
</g>
<defs>
<filter id="filter0_d_1_1354" x="0.761902" y="0.238094" width="132.476" height="132.476" filterUnits="userSpaceOnUse" color-interpolation-filters="sRGB">
<feFlood flood-opacity="0" result="BackgroundImageFix"/>
<feColorMatrix in="SourceAlpha" type="matrix" values="0 0 0 0 0 0 0 0 0 0 0 0 0 0 0 0 0 0 127 0" result="hardAlpha"/>
<feOffset dy="28.4762"/>
<feGaussianBlur stdDeviation="20.119"/>
<feComposite in2="hardAlpha" operator="out"/>
<feColorMatrix type="matrix" values="0 0 0 0 0 0 0 0 0 0 0 0 0 0 0 0 0 0 0.25 0"/>
<feBlend mode="normal" in2="BackgroundImageFix" result="effect1_dropShadow_1_1354"/>
<feBlend mode="normal" in="SourceGraphic" in2="effect1_dropShadow_1_1354" result="shape"/>
</filter>
</defs>
</svg>
