<svg width="38" height="38" viewBox="0 0 38 38" fill="none" xmlns="http://www.w3.org/2000/svg">
<rect width="38" height="38" rx="8.44444" fill="#2358DE"/>
<path d="M21.25 24.625H28M24.625 28V21.25M11.8 10H14.95C15.1864 10 15.4204 10.0466 15.6388 10.137C15.8572 10.2275 16.0556 10.3601 16.2228 10.5272C16.3899 10.6944 16.5225 10.8928 16.613 11.1112C16.7034 11.3296 16.75 11.5636 16.75 11.8V14.95C16.75 15.1864 16.7034 15.4204 16.613 15.6388C16.5225 15.8572 16.3899 16.0556 16.2228 16.2228C16.0556 16.3899 15.8572 16.5225 15.6388 16.613C15.4204 16.7034 15.1864 16.75 14.95 16.75H11.8C11.3226 16.75 10.8648 16.5604 10.5272 16.2228C10.1896 15.8852 10 15.4274 10 14.95V11.8C10 11.3226 10.1896 10.8648 10.5272 10.5272C10.8648 10.1896 11.3226 10 11.8 10ZM11.8 21.25H14.95C15.4274 21.25 15.8852 21.4396 16.2228 21.7772C16.5604 22.1148 16.75 22.5726 16.75 23.05V26.2C16.75 26.6774 16.5604 27.1352 16.2228 27.4728C15.8852 27.8104 15.4274 28 14.95 28H11.8C11.3226 28 10.8648 27.8104 10.5272 27.4728C10.1896 27.1352 10 26.6774 10 26.2V23.05C10 22.5726 10.1896 22.1148 10.5272 21.7772C10.8648 21.4396 11.3226 21.25 11.8 21.25ZM23.05 10H26.2C26.6774 10 27.1352 10.1896 27.4728 10.5272C27.8104 10.8648 28 11.3226 28 11.8V14.95C28 15.4274 27.8104 15.8852 27.4728 16.2228C27.1352 16.5604 26.6774 16.75 26.2 16.75H23.05C22.5726 16.75 22.1148 16.5604 21.7772 16.2228C21.4396 15.8852 21.25 15.4274 21.25 14.95V11.8C21.25 11.3226 21.4396 10.8648 21.7772 10.5272C22.1148 10.1896 22.5726 10 23.05 10Z" stroke="white" stroke-width="1.5" stroke-miterlimit="10" stroke-linecap="round" stroke-linejoin="round"/>
</svg>
